<svg t="1594285710384" class="icon" viewBox="0 0 1024 1024" version="1.1" xmlns="http://www.w3.org/2000/svg" p-id="2134" width="200" height="200"><path d="M512 192c141.152 0 256 114.848 256 256s-114.848 256-256 256-256-114.848-256-256 114.848-256 256-256m0-64c-176.736 0-320 143.264-320 320s143.264 320 320 320 320-143.264 320-320S688.736 128 512 128z" p-id="2135"></path><path d="M822.496 673.552c5.984 9.776 9.504 19.936 9.504 30.448 0 70.688-143.264 128-320 128s-320-57.312-320-128c0-10.512 3.52-20.672 9.504-30.448a384.608 384.608 0 0 1-35.296-58.656C134.624 648.368 128 682.032 128 704c0 35.984 17.408 103.312 133.952 149.936C329.776 881.056 418.576 896 512 896s182.224-14.944 250.048-42.064C878.592 807.312 896 739.984 896 704c0-21.968-6.624-55.632-38.208-89.12a384.768 384.768 0 0 1-35.296 58.672z" p-id="2136"></path><path d="M512 256c-106.032 0-192 85.968-192 192s85.968 192 192 192 192-85.968 192-192-85.968-192-192-192z m-80 176a64 64 0 1 1 0-128 64 64 0 0 1 0 128z" p-id="2137"></path></svg>